<svg xmlns="http://www.w3.org/2000/svg" width="40" height="40">
    <circle cx="20" cy="20" r="14" fill="#fff" stroke="#1BAD03" stroke-width="4"/>
    <g transform="translate(9, 9)">
    <path fill="#808285"
          d="M8.1 17.95h1.74v1.15H5.21v-1.15h1.74v-4.06c-.45.28-1.19.58-1.74.58-1.67 0-2.9-1.68-2.9-3.18 0-1.6.69-2.93 1.68-3.5a3.76 3.76 0 0 1-.17-1.12 3.71 3.71 0 0 1 3.7-3.78c1.36 0 2.81.67 3.48 1.74l-2.32 2.9H11L7.53 11h2.31l-2.31 3.47h.58v3.48zm5.8 0h-1.74v1.15h4.63v-1.15h-1.74v-2.9h4.63L16.21 11h2.9l-3.48-3.47h2.32l-3.48-4.64L11 7.53h2.32L9.84 11h2.9l-3.48 4.05h4.63v2.9z"/>
    </g>
</svg>