<svg xmlns="http://www.w3.org/2000/svg" width="40" height="40">
    <circle cx="20" cy="20" r="14" fill="#fff" stroke="#1E98FF" stroke-width="4"/>
    <g transform="translate(9, 8)">
        <path fill="#808285"
              d="M7.53 5.79a1.74 1.74 0 1 0 0-3.48 1.74 1.74 0 0 0 0 3.48zm2.31.58H5.22l-.3.25-2.6 4.96 1.15.58 1.75-3.48v10.43h1.73V13.9H8.1v5.2h1.73V8.7l2.32 4.34 2.31-.58v6.66h1.16v-4.06h.58v4.06h1.16v-6.37l2.31 1.44.58-.86L17.37 11h-2.9l-1.73.63-2.6-5-.3-.26zm6.08 4.05a1.16 1.16 0 1 0 0-2.31 1.16 1.16 0 0 0 0 2.31z"/>

    </g>
</svg>